<?xml version="1.0" encoding="UTF-8"?>
<svg id="Camada_1" data-name="Camada 1" xmlns="http://www.w3.org/2000/svg" viewBox="0 0 1100 1100">
  <defs>
    <style>
      .cls-1 {
        font-family: Outfit-Medium, Outfit;
        font-size: 38.55px;
        font-weight: 500;
      }

      .cls-1, .cls-2, .cls-3 {
        fill: #fff;
      }

      .cls-4 {
        letter-spacing: -.03em;
      }

      .cls-5 {
        letter-spacing: 0em;
      }

      .cls-6 {
        letter-spacing: 0em;
      }

      .cls-7 {
        letter-spacing: -.02em;
      }

      .cls-8 {
        letter-spacing: -.01em;
      }

      .cls-2 {
        stroke: #fff;
        stroke-miterlimit: 10;
      }

      .cls-9 {
        letter-spacing: 0em;
      }

      .cls-10 {
        letter-spacing: -.05em;
      }

      .cls-11 {
        letter-spacing: 0em;
      }

      .cls-3 {
        font-family: Outfit-Light, Outfit;
        font-size: 116.75px;
        font-weight: 300;
      }

      .cls-12 {
        letter-spacing: 0em;
      }

      .cls-13 {
        letter-spacing: 0em;
      }

      .cls-14 {
        letter-spacing: -.02em;
      }

      .cls-15 {
        letter-spacing: -.01em;
      }
    </style>
  </defs>
  <g>
    <g>
      <path class="cls-2" d="M498.26,392.71c14.54,2.44,20.37,11.04,18.76,25.75-.72,6.6-6.36,11.25-8.47,12.78-.51.37-.8.95-.8,1.57.01,3.19.02,13-.36,18.15-.72,9.83-6.09,24.17-7.27,34.11-.36,3.01,3.48,1.05,6.43-.65-2.43,2.24-4.5,3.14-4.5,3.14,0,0,3.12-.4,5.07-.77-4.41,3.52-8.82,3.88-8.82,3.88-.22,3.85.58,6.77,1.47,10.5,1.23,5.14,7.3,11.89,6.05,16.67-2.25,8.63-12.27,6.43-13.82,9.14-1.14,1.99,3.74,11.02-6.36,11.61,2.17,8.17-1.1,6.7-5.95,12.32-3.33,3.85-4.6,20.44-12.62,19.9-25.73-1.72-48.68-14.62-55.88,22.35-4.14,21.26,16.22,55.1,37.27,91.72,22.52,39.17,48.67,64.17,76.32,76.27,3.91,1.71,4.88,6.84,1.87,9.87-50.18,50.42-179.32-56.24-240.29-47.34-85.18,12.44-80.15,32.93-88.43,26.93-.8-2.34-1.98-3.85-1.85-6.54,25.65-65.11,75.76-120.12,91.41-191,20.8-96.65,54.8-217.94,180.1-191.26,9.81,2.06,21.56,7.37,28.3,14.85l2.38,16.05ZM492.74,381.13c-23.16-27.59-82.28-18.45-112.62-6.07-59.63,28.45-75.29,120.61-91.15,181.91-.23.89,1.04,1.32,1.4.47,10.36-24.74,34.14-80.69,39.65-100.77-12.83,46.73-30.5,85.9-50.39,130.92-.43.97.96,1.69,1.49.77,15.49-26.68,51.61-90.56,69.58-136.18-15.05,55.84-96.89,190.97-139.37,272.92-2.41,4.66,1.99,9.93,7,8.36,36.79-11.52,76.17-19.56,113.05-7.09,45.06,18.03,95.72,41.83,135.02,47.95,1.42.22,1.86-1.84.49-2.24-78.31-22.87-92.69-118.27-151.65-110.9-6.69.84-10.6,1.47-16.44,3.97-6.58,2.82-11.28,8.81-12.52,15.86-1.71,9.69-3.16,21.75-3.04,24.71-1.63-.34-1.67-1.77-1.82-3.11-2.16-19.7-.54-34.77,10.99-51.12,26.74-37.93,64.44-66.69,89.21-107.29,33.11-53.16,50.69-134.94,111.13-163.06ZM496.33,391.03c-.33-3.37-.98-7.86-5.1-6.52-8.83,2.87.12,6.55,5.1,6.52ZM507.74,414.61c-8.5,7.68-2.23,10.35-.17,14.17,7.48-5.3,9.33-15.82,4.81-23.67-4.58-7.97-21.55-8.51-27.28-16.61-34.99,27.1-55.16,68.71-74.18,107.73,26.2-30.39,66.77-56.13,96.81-81.62ZM498.14,475.87v8.67c3.89-17.01,14.91-45.23,3.14-61.14-20.18,19.26-44.28,33.88-64.29,53.48-17.1,16.46-16.26,27.64-23.33,48.6-8.53,25.29-21.21,50.76-38.54,71.23-1.85,2.19-1.19,5.53,1.37,6.81,0,0,18.61,6.17,29.99,18.71,13.83,15.26,6-1.98,5.23-4.3-8.49-25.56-3.58-59,34.69-53.28,4.84.72,18.6,4.28,22.04,1.7,5.19-3.89,5.74-13.26,10.89-18.34,1.69-1.67,4.91-1.88,5.15-4.76.53-6.41-10.46-4.85-12.86-11.66,2.74,3.33,11.07,6.98,16.4,4.44,6.13-2.92-.77-8.65,2.49-11.9,2.97-2.97,7.36-.24,10.55-2.71,6.86-6.08-3.85-14.7-3.85-30.67-8.47-.79-15.77-2.08-21.55-8.9,6.28,2.36,12.9,5.66,19.83,4.09.88-.62,1.62-4.76,1.84-8.05.07-.96-.18-1.88-.65-2.65-.84-1.39-2.46-2.11-4.08-2.03-2.14.1-6.97.5-11.91,2.08,7.06-4.16,13.07-3.91,13.07-3.91,2.43.07,4.37,2.07,4.37,4.5ZM330.97,618.18c49.41-8.54,74.32-75.03,86.23-120.15-6.98,5.21-22.39,28.54-36.47,54.61-14.25,26.39-42.49,48.77-51.85,62.01-1.11,1.57.19,3.85,2.09,3.53ZM448.77,691.74c-29.87-56-44.3-74.86-76.06-88.45-1.45-.62-3.12-.4-4.38.55-3.42,2.58-9.33,8.16-12.49,11.48-.91.96-.42,2.55.88,2.82,31.5,6.5,58.76,27.17,85.3,65.27,6.1,8.75,9.57,13.62,6.76,8.34ZM515.14,760.33c-71.06-31.57-76.86-121.39-165.06-142.51-1.69-.4-4.51,5.01-25.72,2.62-1.12.3-18.09,18.29-21.6,25.16-.52,1.02.62,2.06,1.61,1.48,22.64-13.41,53.64-17.51,75.7-2.67,37.13,24.98,67.93,132.38,134.39,121.31,2.77-.46,3.24-4.25.67-5.39ZM497.94,771.76c1.97.07,2.24-2.8.29-3.1-101.51-15.91-76.02-143.2-168.41-125.61-13.5,2.57-29.01,7.86-37.57,19.08,86.56-31.49,97.49,84.03,178.02,105.18,2.38,1.05,18.06,4.09,27.67,4.45Z"/>
      <path class="cls-2" d="M496.33,391.03c-4.98.03-13.93-3.64-5.1-6.52,4.12-1.34,4.77,3.15,5.1,6.52Z"/>
      <path class="cls-2" d="M331.81,567.26c7.91-11.06,9.84-16.31,12.39-22.18,19.58-44.92,22.27-74.08,61.31-117.18-35.48,47.59-38.48,67.41-58.27,113-3.99,9.2-8.72,18.98-15.43,26.36Z"/>
      <path class="cls-2" d="M481.02,464.11c1.7-4.29,18.62-3.85,19.1-1.49-.6,4.03-2.93.93-7.8.59-8.05-.57-11.29.9-11.29.9Z"/>
    </g>
    <path class="cls-2" d="M252.48,574.29c-39.22-46.44-51.32-113.47-31.85-170.97,14.22-43.8,45.79-81.55,86.19-103.63,96.13-52.3,216.57-10.64,259.04,90.38,20.36,48.25,18.76,104.32-4.74,151.14-7.73,15.36-17.64,29.54-29.23,42.05l-.68-.59c23.93-29.29,39.09-66.01,41.35-103.81,2.02-29.02-3.35-58.57-15.19-85.12-43.32-96.88-162.18-134.1-252.87-78.91-56.8,34.33-89.95,98.97-85.05,165.15,1.29,16.7,4.58,33.24,10.33,49.01,5.64,15.84,13.6,30.9,23.4,44.76l-.71.55h0Z"/>
  </g>
  <text class="cls-3" transform="translate(487.49 641.38)"><tspan x="0" y="0">Institu</tspan><tspan class="cls-14" x="310.43" y="0">t</tspan><tspan class="cls-12" x="350.12" y="0">o</tspan><tspan class="cls-10" x="0" y="97">K</tspan><tspan x="70.52" y="97">enósis</tspan></text>
  <text class="cls-1" transform="translate(529.86 775.2)"><tspan class="cls-7" x="0" y="0">F</tspan><tspan x="21.12" y="0">o</tspan><tspan class="cls-11" x="42.83" y="0">n</tspan><tspan class="cls-8" x="63.83" y="0">t</tspan><tspan x="77.87" y="0">e das G</tspan><tspan class="cls-4" x="204.92" y="0">r</tspan><tspan class="cls-9" x="220.07" y="0">a</tspan><tspan class="cls-13" x="242.42" y="0">ç</tspan><tspan x="260.81" y="0">as</tspan><tspan class="cls-8" x="0" y="46.26">C</tspan><tspan class="cls-9" x="25.79" y="46.26">on</tspan><tspan class="cls-15" x="68.73" y="46.26">c</tspan><tspan class="cls-5" x="87.12" y="46.26">ei</tspan><tspan class="cls-13" x="116.72" y="46.26">ç</tspan><tspan x="135.11" y="46.26">ão &amp; Mene</tspan><tspan class="cls-6" x="315.24" y="46.26">z</tspan><tspan x="332.32" y="46.26">es</tspan></text>
</svg>